<mxfile host="app.diagrams.net" modified="2024-03-22T06:38:53.953Z" agent="Mozilla/5.0 (Windows NT 10.0; Win64; x64) AppleWebKit/537.36 (KHTML, like Gecko) Chrome/123.0.0.0 Safari/537.36" etag="Zix8tAklRSK4pNnrufRW" version="24.0.7" type="github">
  <diagram name="ページ1" id="HIPtesKvbmgMyHNCUn8z">
    <mxGraphModel dx="1674" dy="818" grid="1" gridSize="10" guides="1" tooltips="1" connect="1" arrows="1" fold="1" page="1" pageScale="1" pageWidth="827" pageHeight="1169" math="0" shadow="0">
      <root>
        <mxCell id="0" />
        <mxCell id="1" parent="0" />
        <mxCell id="OEcin-zBZ2RreX9hXGFv-1" value="あいまいさ回避(言語)" style="swimlane;whiteSpace=wrap;html=1;" vertex="1" parent="1">
          <mxGeometry x="440" y="40" width="380" height="279.5" as="geometry" />
        </mxCell>
        <mxCell id="OEcin-zBZ2RreX9hXGFv-2" style="edgeStyle=orthogonalEdgeStyle;rounded=0;orthogonalLoop=1;jettySize=auto;html=1;" edge="1" parent="OEcin-zBZ2RreX9hXGFv-1" source="OEcin-zBZ2RreX9hXGFv-3">
          <mxGeometry relative="1" as="geometry">
            <mxPoint x="162" y="243" as="targetPoint" />
          </mxGeometry>
        </mxCell>
        <mxCell id="OEcin-zBZ2RreX9hXGFv-3" value="「不明です」&lt;br&gt;「30%ぐらいです」&lt;br&gt;現状維持" style="rounded=1;whiteSpace=wrap;html=1;shadow=0;labelBackgroundColor=none;strokeColor=none;strokeWidth=3;fillColor=#1699d3;fontFamily=Helvetica;fontSize=14;fontColor=#FFFFFF;align=center;spacing=5;fontStyle=1;arcSize=7;perimeterSpacing=2;" vertex="1" parent="OEcin-zBZ2RreX9hXGFv-1">
          <mxGeometry x="219" y="213" width="150" height="60" as="geometry" />
        </mxCell>
        <mxCell id="OEcin-zBZ2RreX9hXGFv-4" style="edgeStyle=orthogonalEdgeStyle;rounded=0;orthogonalLoop=1;jettySize=auto;html=1;entryX=0;entryY=0.5;entryDx=0;entryDy=0;" edge="1" parent="OEcin-zBZ2RreX9hXGFv-1" target="OEcin-zBZ2RreX9hXGFv-3">
          <mxGeometry relative="1" as="geometry">
            <mxPoint x="162" y="243" as="sourcePoint" />
          </mxGeometry>
        </mxCell>
        <mxCell id="OEcin-zBZ2RreX9hXGFv-5" style="edgeStyle=orthogonalEdgeStyle;rounded=0;orthogonalLoop=1;jettySize=auto;html=1;" edge="1" parent="OEcin-zBZ2RreX9hXGFv-1">
          <mxGeometry relative="1" as="geometry">
            <mxPoint x="85" y="184" as="sourcePoint" />
            <mxPoint x="85" y="211" as="targetPoint" />
          </mxGeometry>
        </mxCell>
        <mxCell id="OEcin-zBZ2RreX9hXGFv-6" style="edgeStyle=orthogonalEdgeStyle;rounded=0;orthogonalLoop=1;jettySize=auto;html=1;entryX=0.5;entryY=0;entryDx=0;entryDy=0;" edge="1" parent="OEcin-zBZ2RreX9hXGFv-1" source="OEcin-zBZ2RreX9hXGFv-7" target="OEcin-zBZ2RreX9hXGFv-3">
          <mxGeometry relative="1" as="geometry" />
        </mxCell>
        <mxCell id="OEcin-zBZ2RreX9hXGFv-7" value="結果がどうなるか&lt;br&gt;見込みがはっきりしない行動を本能的に心地悪く感じること" style="rounded=1;whiteSpace=wrap;html=1;shadow=0;labelBackgroundColor=none;strokeColor=none;strokeWidth=3;fillColor=#64bbe2;fontFamily=Helvetica;fontSize=14;fontColor=#FFFFFF;align=center;spacing=5;arcSize=7;perimeterSpacing=2;" vertex="1" parent="OEcin-zBZ2RreX9hXGFv-1">
          <mxGeometry x="219" y="33" width="150" height="149.5" as="geometry" />
        </mxCell>
        <mxCell id="OEcin-zBZ2RreX9hXGFv-8" value="言語" style="text;html=1;strokeColor=none;fillColor=none;align=center;verticalAlign=middle;whiteSpace=wrap;rounded=0;" vertex="1" parent="OEcin-zBZ2RreX9hXGFv-1">
          <mxGeometry x="160" y="213" width="60" height="30" as="geometry" />
        </mxCell>
        <mxCell id="OEcin-zBZ2RreX9hXGFv-9" value="「確定演出」&lt;br style=&quot;border-color: var(--border-color);&quot;&gt;「100%」&lt;br style=&quot;border-color: var(--border-color);&quot;&gt;変革" style="rounded=1;whiteSpace=wrap;html=1;shadow=0;labelBackgroundColor=none;strokeColor=none;strokeWidth=3;fillColor=#e85642;fontFamily=Helvetica;fontSize=14;fontColor=#FFFFFF;align=center;spacing=5;fontStyle=1;arcSize=7;perimeterSpacing=2;" vertex="1" parent="OEcin-zBZ2RreX9hXGFv-1">
          <mxGeometry x="10" y="213" width="150" height="60" as="geometry" />
        </mxCell>
        <mxCell id="OEcin-zBZ2RreX9hXGFv-10" value="" style="rounded=1;whiteSpace=wrap;html=1;shadow=0;labelBackgroundColor=none;strokeColor=none;strokeWidth=3;fillColor=#FCAD90;fontFamily=Helvetica;fontSize=14;fontColor=#FFFFFF;align=center;spacing=5;arcSize=7;perimeterSpacing=2;" vertex="1" parent="OEcin-zBZ2RreX9hXGFv-1">
          <mxGeometry x="10" y="34.5" width="150" height="148" as="geometry" />
        </mxCell>
        <mxCell id="OEcin-zBZ2RreX9hXGFv-11" value="ネガティブ選択/ ポジティブ選択" style="swimlane;whiteSpace=wrap;html=1;startSize=23;" vertex="1" parent="1">
          <mxGeometry x="40" y="40" width="380" height="279.5" as="geometry" />
        </mxCell>
        <mxCell id="OEcin-zBZ2RreX9hXGFv-12" style="edgeStyle=orthogonalEdgeStyle;rounded=0;orthogonalLoop=1;jettySize=auto;html=1;" edge="1" parent="OEcin-zBZ2RreX9hXGFv-11" source="OEcin-zBZ2RreX9hXGFv-13">
          <mxGeometry relative="1" as="geometry">
            <mxPoint x="162" y="243" as="targetPoint" />
          </mxGeometry>
        </mxCell>
        <mxCell id="OEcin-zBZ2RreX9hXGFv-13" value="「死亡率」&lt;br&gt;現状維持" style="rounded=1;whiteSpace=wrap;html=1;shadow=0;labelBackgroundColor=none;strokeColor=none;strokeWidth=3;fillColor=#1699d3;fontFamily=Helvetica;fontSize=14;fontColor=#FFFFFF;align=center;spacing=5;fontStyle=1;arcSize=7;perimeterSpacing=2;" vertex="1" parent="OEcin-zBZ2RreX9hXGFv-11">
          <mxGeometry x="219" y="213" width="150" height="60" as="geometry" />
        </mxCell>
        <mxCell id="OEcin-zBZ2RreX9hXGFv-14" style="edgeStyle=orthogonalEdgeStyle;rounded=0;orthogonalLoop=1;jettySize=auto;html=1;entryX=0;entryY=0.5;entryDx=0;entryDy=0;" edge="1" parent="OEcin-zBZ2RreX9hXGFv-11" target="OEcin-zBZ2RreX9hXGFv-13">
          <mxGeometry relative="1" as="geometry">
            <mxPoint x="162" y="243" as="sourcePoint" />
          </mxGeometry>
        </mxCell>
        <mxCell id="OEcin-zBZ2RreX9hXGFv-15" style="edgeStyle=orthogonalEdgeStyle;rounded=0;orthogonalLoop=1;jettySize=auto;html=1;entryX=0.5;entryY=0;entryDx=0;entryDy=0;" edge="1" parent="OEcin-zBZ2RreX9hXGFv-11" source="OEcin-zBZ2RreX9hXGFv-16" target="OEcin-zBZ2RreX9hXGFv-13">
          <mxGeometry relative="1" as="geometry" />
        </mxCell>
        <mxCell id="OEcin-zBZ2RreX9hXGFv-16" value="" style="rounded=1;whiteSpace=wrap;html=1;shadow=0;labelBackgroundColor=none;strokeColor=none;strokeWidth=3;fillColor=#64bbe2;fontFamily=Helvetica;fontSize=14;fontColor=#FFFFFF;align=center;spacing=5;arcSize=7;perimeterSpacing=2;" vertex="1" parent="OEcin-zBZ2RreX9hXGFv-11">
          <mxGeometry x="219" y="33" width="150" height="149.5" as="geometry" />
        </mxCell>
        <mxCell id="OEcin-zBZ2RreX9hXGFv-17" value="言語" style="text;html=1;strokeColor=none;fillColor=none;align=center;verticalAlign=middle;whiteSpace=wrap;rounded=0;" vertex="1" parent="OEcin-zBZ2RreX9hXGFv-11">
          <mxGeometry x="160" y="213" width="60" height="30" as="geometry" />
        </mxCell>
        <mxCell id="OEcin-zBZ2RreX9hXGFv-18" style="edgeStyle=orthogonalEdgeStyle;rounded=0;orthogonalLoop=1;jettySize=auto;html=1;entryX=0.5;entryY=0;entryDx=0;entryDy=0;" edge="1" parent="OEcin-zBZ2RreX9hXGFv-11" source="OEcin-zBZ2RreX9hXGFv-19" target="OEcin-zBZ2RreX9hXGFv-20">
          <mxGeometry relative="1" as="geometry" />
        </mxCell>
        <mxCell id="OEcin-zBZ2RreX9hXGFv-19" value="癌の外科手術の効果について死亡率の代わりに生存率が示された場合、&lt;br style=&quot;border-color: var(--border-color);&quot;&gt;医師が手術を選択する割合は34%増加した&lt;br style=&quot;border-color: var(--border-color);&quot;&gt;McNeil 1982" style="rounded=1;whiteSpace=wrap;html=1;shadow=0;labelBackgroundColor=none;strokeColor=none;strokeWidth=3;fillColor=#FCAD90;fontFamily=Helvetica;fontSize=14;fontColor=#FFFFFF;align=center;spacing=5;arcSize=7;perimeterSpacing=2;" vertex="1" parent="OEcin-zBZ2RreX9hXGFv-11">
          <mxGeometry x="10" y="34.5" width="150" height="148" as="geometry" />
        </mxCell>
        <mxCell id="OEcin-zBZ2RreX9hXGFv-20" value="「生存率」&lt;br style=&quot;border-color: var(--border-color);&quot;&gt;変革" style="rounded=1;whiteSpace=wrap;html=1;shadow=0;labelBackgroundColor=none;strokeColor=none;strokeWidth=3;fillColor=#e85642;fontFamily=Helvetica;fontSize=14;fontColor=#FFFFFF;align=center;spacing=5;fontStyle=1;arcSize=7;perimeterSpacing=2;" vertex="1" parent="OEcin-zBZ2RreX9hXGFv-11">
          <mxGeometry x="10" y="213" width="150" height="60" as="geometry" />
        </mxCell>
        <mxCell id="OEcin-zBZ2RreX9hXGFv-21" value="大衆心理" style="swimlane;whiteSpace=wrap;html=1;" vertex="1" parent="1">
          <mxGeometry x="40" y="360" width="380" height="279.5" as="geometry" />
        </mxCell>
        <mxCell id="OEcin-zBZ2RreX9hXGFv-22" style="edgeStyle=orthogonalEdgeStyle;rounded=0;orthogonalLoop=1;jettySize=auto;html=1;" edge="1" parent="OEcin-zBZ2RreX9hXGFv-21" source="OEcin-zBZ2RreX9hXGFv-23">
          <mxGeometry relative="1" as="geometry">
            <mxPoint x="162" y="243" as="targetPoint" />
          </mxGeometry>
        </mxCell>
        <mxCell id="OEcin-zBZ2RreX9hXGFv-23" value="「死亡率」&lt;br&gt;現状維持" style="rounded=1;whiteSpace=wrap;html=1;shadow=0;labelBackgroundColor=none;strokeColor=none;strokeWidth=3;fillColor=#1699d3;fontFamily=Helvetica;fontSize=14;fontColor=#FFFFFF;align=center;spacing=5;fontStyle=1;arcSize=7;perimeterSpacing=2;" vertex="1" parent="OEcin-zBZ2RreX9hXGFv-21">
          <mxGeometry x="219" y="213" width="150" height="60" as="geometry" />
        </mxCell>
        <mxCell id="OEcin-zBZ2RreX9hXGFv-24" style="edgeStyle=orthogonalEdgeStyle;rounded=0;orthogonalLoop=1;jettySize=auto;html=1;entryX=0;entryY=0.5;entryDx=0;entryDy=0;" edge="1" parent="OEcin-zBZ2RreX9hXGFv-21" target="OEcin-zBZ2RreX9hXGFv-23">
          <mxGeometry relative="1" as="geometry">
            <mxPoint x="162" y="243" as="sourcePoint" />
          </mxGeometry>
        </mxCell>
        <mxCell id="OEcin-zBZ2RreX9hXGFv-25" style="edgeStyle=orthogonalEdgeStyle;rounded=0;orthogonalLoop=1;jettySize=auto;html=1;entryX=0.5;entryY=0;entryDx=0;entryDy=0;" edge="1" parent="OEcin-zBZ2RreX9hXGFv-21" source="OEcin-zBZ2RreX9hXGFv-26" target="OEcin-zBZ2RreX9hXGFv-23">
          <mxGeometry relative="1" as="geometry" />
        </mxCell>
        <mxCell id="OEcin-zBZ2RreX9hXGFv-26" value="" style="rounded=1;whiteSpace=wrap;html=1;shadow=0;labelBackgroundColor=none;strokeColor=none;strokeWidth=3;fillColor=#64bbe2;fontFamily=Helvetica;fontSize=14;fontColor=#FFFFFF;align=center;spacing=5;arcSize=7;perimeterSpacing=2;" vertex="1" parent="OEcin-zBZ2RreX9hXGFv-21">
          <mxGeometry x="219" y="33" width="150" height="149.5" as="geometry" />
        </mxCell>
        <mxCell id="OEcin-zBZ2RreX9hXGFv-27" value="言語" style="text;html=1;strokeColor=none;fillColor=none;align=center;verticalAlign=middle;whiteSpace=wrap;rounded=0;" vertex="1" parent="OEcin-zBZ2RreX9hXGFv-21">
          <mxGeometry x="160" y="213" width="60" height="30" as="geometry" />
        </mxCell>
        <mxCell id="OEcin-zBZ2RreX9hXGFv-28" style="edgeStyle=orthogonalEdgeStyle;rounded=0;orthogonalLoop=1;jettySize=auto;html=1;entryX=0.5;entryY=0;entryDx=0;entryDy=0;" edge="1" parent="OEcin-zBZ2RreX9hXGFv-21" source="OEcin-zBZ2RreX9hXGFv-29" target="OEcin-zBZ2RreX9hXGFv-30">
          <mxGeometry relative="1" as="geometry" />
        </mxCell>
        <mxCell id="OEcin-zBZ2RreX9hXGFv-29" value="横断歩道&lt;br&gt;みんなで渡れば&lt;br&gt;怖くない" style="rounded=1;whiteSpace=wrap;html=1;shadow=0;labelBackgroundColor=none;strokeColor=none;strokeWidth=3;fillColor=#FCAD90;fontFamily=Helvetica;fontSize=14;fontColor=#FFFFFF;align=center;spacing=5;arcSize=7;perimeterSpacing=2;" vertex="1" parent="OEcin-zBZ2RreX9hXGFv-21">
          <mxGeometry x="10" y="34.5" width="150" height="148" as="geometry" />
        </mxCell>
        <mxCell id="OEcin-zBZ2RreX9hXGFv-30" value="「みんなやってるよ」&lt;br&gt;取り組む" style="rounded=1;whiteSpace=wrap;html=1;shadow=0;labelBackgroundColor=none;strokeColor=none;strokeWidth=3;fillColor=#e85642;fontFamily=Helvetica;fontSize=14;fontColor=#FFFFFF;align=center;spacing=5;fontStyle=1;arcSize=7;perimeterSpacing=2;" vertex="1" parent="OEcin-zBZ2RreX9hXGFv-21">
          <mxGeometry x="10" y="213" width="150" height="60" as="geometry" />
        </mxCell>
      </root>
    </mxGraphModel>
  </diagram>
</mxfile>
